HIERARCHY
ROOT RootJoint
{
    OFFSET   0.000000   0.000000   0.000000
    CHANNELS 6 Xposition Yposition Zposition Xrotation Yrotation Zrotation
    JOINT pelvis_lowerback
    {
        OFFSET   0.000000   0.093605   0.000000
        CHANNELS 3 Xrotation Yrotation Zrotation
        JOINT lowerback_torso
        {
            OFFSET   0.000000   0.100000   0.000000
            CHANNELS 3 Xrotation Yrotation Zrotation
            JOINT torso_head
            {
                OFFSET   0.000000   0.282350   0.000000
                CHANNELS 3 Xrotation Yrotation Zrotation
                End Site
                {
                    OFFSET   0.000000   0.192650   0.000000
                }
            }
            JOINT rTorso_Clavicle
            {
                OFFSET  -0.001000   0.157500   0.000000
                CHANNELS 3 Xrotation Yrotation Zrotation
                JOINT rShoulder
                {
                    OFFSET  -0.117647   0.000000   0.000000
                    CHANNELS 3 Xrotation Yrotation Zrotation
                    JOINT rElbow
                    {
                        OFFSET  -0.245000   0.000000   0.000000
                        CHANNELS 3 Xrotation Yrotation Zrotation
                        JOINT rWrist
                        {
                            OFFSET  -0.240000   0.000000   0.000000
                            CHANNELS 3 Xrotation Yrotation Zrotation
                            End Site
                            {
                                OFFSET  -0.116353  -0.002500   0.000000
                            }
                        }
                    }
                }
            }
            JOINT lTorso_Clavicle
            {
                OFFSET   0.001000   0.157500   0.000000
                CHANNELS 3 Xrotation Yrotation Zrotation
                JOINT lShoulder
                {
                    OFFSET   0.117647   0.000000   0.000000
                    CHANNELS 3 Xrotation Yrotation Zrotation
                    JOINT lElbow
                    {
                        OFFSET   0.245000   0.000000   0.000000
                        CHANNELS 3 Xrotation Yrotation Zrotation
                        JOINT lWrist
                        {
                            OFFSET   0.240000   0.000000   0.000000
                            CHANNELS 3 Xrotation Yrotation Zrotation
                            End Site
                            {
                                OFFSET   0.116353  -0.002500   0.000000
                            }
                        }
                    }
                }
            }
        }
    }
    JOINT rHip
    {
        OFFSET  -0.100000  -0.051395   0.000000
        CHANNELS 3 Xrotation Yrotation Zrotation
        JOINT rKnee
        {
            OFFSET   0.000000  -0.410000   0.000000
            CHANNELS 3 Xrotation Yrotation Zrotation
            JOINT rAnkle
            {
                OFFSET   0.000000  -0.390000   0.000000
                CHANNELS 3 Xrotation Yrotation Zrotation
                JOINT rToeJoint
                {
                    OFFSET   0.000000  -0.050000   0.130000
                    CHANNELS 3 Xrotation Yrotation Zrotation
                    End Site
                    {
                        OFFSET  -0.010000   0.002000   0.060000
                    }
                }
            }
        }
    }
    JOINT lHip
    {
        OFFSET   0.100000  -0.051395   0.000000
        CHANNELS 3 Xrotation Yrotation Zrotation
        JOINT lKnee
        {
            OFFSET   0.000000  -0.410000   0.000000
            CHANNELS 3 Xrotation Yrotation Zrotation
            JOINT lAnkle
            {
                OFFSET   0.000000  -0.390000   0.000000
                CHANNELS 3 Xrotation Yrotation Zrotation
                JOINT lToeJoint
                {
                    OFFSET   0.000000  -0.050000   0.130000
                    CHANNELS 3 Xrotation Yrotation Zrotation
                    End Site
                    {
                        OFFSET   0.010000   0.002000   0.060000
                    }
                }
            }
        }
    }
}
MOTION
Frames: 15
Frame Time:   0.008333
 -2.376719   0.925631   3.975860   0.000000   0.000000   0.000000   0.000000   0.000000   0.000000   0.000000   0.000000   0.000000   0.000000   0.000000   0.000000   0.000000   0.000000   0.000000   0.000000   0.000000   0.000000   0.000000   0.000000   0.000000   0.000000   0.000000   0.000000   0.000000   0.000000   0.000000   0.000000   0.000000   0.000000   0.000000   0.000000   0.000000   0.000000   0.000000   0.000000   0.000000   0.000000   0.000000   0.000000   0.000000   0.000000   0.000000   0.000000   0.000000   0.000000   0.000000   0.000000   0.000000   0.000000   0.000000   0.000000   0.000000   0.000000   0.000000   0.000000   0.000000   0.000000   0.000000   0.000000
 -2.377103   0.926108   3.975073  -0.600281  -0.238654  -0.103342   0.839418   0.298483  -0.014269   0.147930  -0.459585   0.001379  -0.256719  -0.443638   0.325235  -0.146934  -0.193063   0.423205   0.027639   0.743559   2.042654   0.040173   1.951991  -0.005217   0.217118  -1.279179  -2.831099   0.328500   0.582953  -0.205114   1.567464   0.299957  -1.922264   0.012043  -0.614445   0.012271   0.291048  -0.217938   2.519326   0.150583  -0.082646   0.272331   2.539801  -0.003944  -0.007026  -3.330073  -0.209404  -0.126110   0.220371  -0.000074  -0.001032  -0.871017   0.097438   0.071597   3.614563   0.000919  -0.004449  -1.250128   0.612862   0.260614  -0.187226   0.000378  -0.000769
 -2.377639   0.926820   3.974672  -1.349010  -0.785181  -0.242596   1.657209   0.743878  -0.051354   0.425989  -0.747552   0.021894  -0.444266  -0.892195   0.639180  -0.288345  -0.220680   1.542457   0.006598   1.657197   4.652355   0.093270   3.890660  -0.008259   0.438322  -1.824507  -4.950960   0.665553   1.210869  -1.064640   3.135819   0.609638  -4.381672   0.026785  -1.176493   0.020822   0.660451  -0.491029   4.390912   0.710208  -0.156531   0.663122   5.308669  -0.010821  -0.020002  -6.445122  -0.397542  -0.245851   0.280297  -0.000127  -0.001254  -1.829802   0.200482   0.127200   7.398911   0.002163  -0.018357  -2.387143   1.188780   0.522355  -0.284205   0.000472  -0.000721
 -2.378221   0.927362   3.974589  -2.076756  -1.538825  -0.395161   2.376400   1.290915  -0.105981   0.680982  -0.876578   0.042500  -0.609189  -1.314847   0.926417  -0.422697  -0.144717   3.076939  -0.071944   2.647967   7.630649   0.145316   5.736728  -0.008407   0.659025  -2.046216  -6.252829   0.992373   1.832222  -2.334224   4.700291   0.880025  -7.199759   0.040676  -1.689386   0.026092   1.025276  -0.730198   5.510874   1.538385  -0.221041   1.098794   8.032924  -0.019156  -0.034165  -9.346347  -0.566658  -0.362306   0.346365  -0.000200  -0.001584  -2.917360   0.289688   0.137807  10.941795   0.002480  -0.035696  -3.446140   1.719155   0.780241  -0.357148   0.000483  -0.000481
 -2.378818   0.927451   3.974739  -2.752567  -2.430902  -0.557846   3.005995   1.905961  -0.171544   0.887122  -0.886850   0.060343  -0.766965  -1.710248   1.190108  -0.548286  -0.008782   4.841811  -0.211913   3.679446  10.859537   0.189989   7.477459  -0.006790   0.873585  -2.121853  -6.944461   1.309199   2.439960  -3.842173   6.265673   1.093299 -10.263595   0.052265  -2.159761   0.029039   1.374968  -0.934982   6.067637   2.572680  -0.271674   1.546768  10.666467  -0.027980  -0.047037 -12.051354  -0.718992  -0.476852   0.410790  -0.000269  -0.001897  -4.138224   0.368666   0.109476  14.197441   0.001539  -0.052417  -4.438871   2.207526   1.032260  -0.433169   0.000477  -0.000154
 -2.379394   0.926868   3.975055  -3.375697  -3.415437  -0.732894   3.562227   2.567173  -0.238859   1.050497  -0.805043   0.085076  -0.919753  -2.080039   1.430966  -0.663611   0.167821   6.745166  -0.408462   4.700465  14.170314   0.224326   9.113570  -0.004434   1.078999  -2.118297  -7.173249   1.617010   3.029958  -5.475858   7.833560   1.237727 -13.496659   0.061099  -2.592968   0.030396   1.707288  -1.112918   6.235648   3.773521  -0.304803   1.988948  13.201512  -0.036576  -0.057585 -14.573996  -0.856228  -0.589867   0.471745  -0.000322  -0.002151  -5.478202   0.440609   0.055079  17.177580  -0.000377  -0.066621  -5.370495   2.657686   1.277012  -0.514356   0.000460   0.000227
 -2.379911   0.925441   3.975488  -3.950777  -4.457318  -0.921966   4.059370   3.258793  -0.299081   1.181317  -0.650521   0.125841  -1.066901  -2.425861   1.651233  -0.768706   0.373411   8.722717  -0.649161   5.669601  17.417261   0.247556  10.649117  -0.002028   1.274435  -2.065565  -7.058406   1.916379   3.599143  -7.159640   9.403124   1.305389 -16.845437   0.067239  -2.993400   0.030678   2.022347  -1.271589   6.145531   5.108049  -0.318211   2.413305  15.636782  -0.044428  -0.065452 -16.926719  -0.979864  -0.701390   0.529010  -0.000357  -0.002332  -6.918638   0.507300  -0.014966  19.902773  -0.002787  -0.077552  -6.244796   3.072976   1.513443  -0.598631   0.000430   0.000620
 -2.380173   0.922463   3.974861  -4.047082  -5.313253  -0.893329   4.328893   3.853899  -0.538753   1.242741  -0.560869   0.145212  -1.417215  -2.409466   1.642400  -0.802418   0.641784  10.115172  -0.912151   6.609019  20.408810   0.267672  12.500698  -0.004916   1.364672  -2.248953  -5.869216   2.187307   4.166775  -8.233157  11.094221   1.127919 -19.996080   0.070992  -3.432392   0.032327   2.189939  -1.597112   4.792411   6.458611  -0.428921   2.498416  16.279965  -0.038700  -0.057160 -18.756144  -0.861055  -0.794404   0.737145  -0.000459  -0.003488  -9.278400   0.786872  -0.201548  22.880023  -0.004455  -0.078720  -7.945779   3.661189   1.763627  -0.716476   0.000380   0.000512
 -2.380330   0.918143   3.973549  -4.074787  -6.247225  -0.823333   4.704797   4.501123  -0.806826   1.325406  -0.401147   0.117944  -1.758786  -2.380811   1.613989  -0.887030   1.000370  11.197288  -1.230820   7.560549  23.064498   0.271692  14.270390  -0.010345   1.483914  -2.235887  -4.801268   2.431866   4.653799  -9.034360  12.652738   0.863711 -22.793439   0.071098  -3.852410   0.033287   2.353653  -1.993915   3.518653   7.763023  -0.513633   2.432842  16.639892  -0.032435  -0.048677 -20.475119  -0.745688  -0.877922   0.925413  -0.000370  -0.004339 -11.802634   1.083241  -0.329493  25.584749  -0.007744  -0.079299  -9.548038   4.209104   2.016791  -0.893396   0.000406   0.000571
 -2.380446   0.912612   3.971871  -4.092032  -7.212990  -0.752518   5.158930   5.165015  -1.082888   1.457228  -0.189204   0.068471  -2.064511  -2.352671   1.584963  -1.021803   1.416680  12.051654  -1.597947   8.501490  25.443321   0.265577  15.950651  -0.016450   1.623859  -2.073403  -3.993197   2.654586   5.087086  -9.647817  14.088591   0.547795 -25.297391   0.068791  -4.247417   0.033421   2.504747  -2.393553   2.484182   9.039458  -0.590109   2.283313  16.937291  -0.027002  -0.041486 -22.081640  -0.637757  -0.954227   1.095622  -0.000185  -0.004903 -14.365207   1.353584  -0.366317  28.027601  -0.011800  -0.078780 -11.049714   4.714448   2.268943  -1.062590   0.000463   0.000725
 -2.380538   0.905969   3.970043  -4.109310  -8.165750  -0.688023   5.656858   5.823703  -1.363965   1.625801   0.052972   0.005568  -2.335407  -2.325886   1.557590  -1.193270   1.854126  12.736676  -1.999945   9.408171  27.594074   0.253327  17.538545  -0.022071   1.773308  -1.811674  -3.404054   2.862599   5.486821 -10.123113  15.414886   0.206341 -27.555000   0.064980  -4.614324   0.032721   2.642232  -2.764143   1.651901  10.299001  -0.661826   2.079102  17.215101  -0.022458  -0.035548 -23.580910  -0.536685  -1.024564   1.253281   0.000034  -0.005217 -16.917169   1.592070  -0.320903  30.241909  -0.015643  -0.076601 -12.456573   5.180319   2.517314  -1.220657   0.000516   0.000872
 -2.380611   0.898290   3.968204  -4.128881  -9.075175  -0.630169   6.173607   6.464312  -1.647591   1.816903   0.309490  -0.066449  -2.577089  -2.300526   1.531716  -1.386989   2.287062  13.294783  -2.423203  10.264274  29.553650   0.237600  19.032671  -0.026670   1.924579  -1.494735  -2.979998   3.061968   5.866000 -10.495015  16.643860  -0.142943 -29.602923   0.060308  -4.951820   0.031298   2.767072  -3.088896   0.971215  11.543581  -0.729906   1.838945  17.484893  -0.018686  -0.030634 -24.979569  -0.441736  -1.089788   1.399953   0.000249  -0.005309 -19.428321   1.799411  -0.212522  32.256515  -0.018662  -0.072817 -13.774280   5.609783   2.759801  -1.367433   0.000544   0.000963
 -2.380664   0.889640   3.966434  -4.151707  -9.922576  -0.578441   6.692901   7.079316  -1.930384   2.020487   0.569728  -0.144026  -2.794817  -2.276541   1.507032  -1.590994   2.700187  13.756795  -2.856196  11.061112  31.349896   0.220181  20.433818  -0.030096   2.073347  -1.155043  -2.678097   3.256885   6.231878 -10.788933  17.785964  -0.489162 -31.470144   0.055228  -5.260161   0.029331   2.880898  -3.360522   0.402504  12.769913  -0.795226   1.577788  17.750478  -0.015558  -0.026526 -26.284207  -0.352281  -1.150464   1.536328   0.000437  -0.005217 -21.876953   1.978348  -0.061393  34.095602  -0.020590  -0.067796 -15.008229   6.005657   2.994896  -1.503408   0.000539   0.000983
 -2.379960   0.879956   3.964749  -3.994801 -11.149384  -0.319481   7.046315   7.763009  -2.278158   2.239001   0.961103  -0.271581  -3.073347  -2.341612   1.401943  -1.774764   3.114895  13.756611  -3.392933  11.827910  32.769197   0.203140  22.236152  -0.033519   2.133466  -0.985153  -1.737657   3.280721   6.850939 -10.734401  18.635941  -0.617217 -32.994912   0.049167  -5.581251   0.026019   2.994455  -3.793645  -0.914532  13.948936  -0.715372   0.723937  16.874234  -0.012209  -0.012713 -26.625724   0.003925  -1.140644   2.026180   0.002398  -0.007060 -24.178455   2.290610   0.079069  35.246359  -0.021420  -0.062460 -16.144750   6.258911   3.234883  -1.814861   0.000712   0.002312
 -2.378848   0.869286   3.962940  -3.792446 -12.494892  -0.043779   7.413620   8.424828  -2.570235   2.427828   1.370220  -0.395756  -3.334777  -2.406496   1.302587  -2.041583   3.535623  13.485612  -3.963520  12.578791  33.910984   0.180935  23.957265  -0.034149   2.202410  -0.616515  -1.064440   3.333354   7.469101 -10.468437  19.457634  -0.686452 -34.279634   0.042220  -5.858350   0.022886   3.077921  -4.145590  -2.062269  14.949085  -0.645536  -0.376036  15.846329  -0.011309   0.001138 -26.941155   0.335252  -1.130666   2.552986   0.005092  -0.009179 -26.396908   2.541447   0.350306  36.226262  -0.022380  -0.057797 -17.211709   6.489312   3.464318  -2.107621   0.000964   0.003670
